<svg width="44" height="32" viewBox="0 0 44 32" fill="none" xmlns="http://www.w3.org/2000/svg">
<g clip-path="url(#clip0_347_8154)">
<path d="M13.8275 25.5844C13.8004 25.5882 13.7752 25.605 13.7531 25.6399C13.6649 25.7806 13.8839 27.1023 14.5127 27.8175C15.1415 28.5351 16.5324 28.2833 17.4998 28.4352C18.467 28.5869 18.8403 29.3176 19.4912 30.2576C20.4936 31.8886 21.9087 31.9281 21.9087 31.9281C21.9087 31.9281 23.3238 31.8886 24.3261 30.2576C24.977 29.3176 25.3505 28.5869 26.3177 28.4352C27.2849 28.2833 28.6764 28.5351 29.3052 27.8175C29.934 27.1023 30.1528 25.7806 30.0646 25.6399C29.9766 25.4995 29.8375 25.6504 29.7332 25.7697C29.2821 26.2859 29.0534 26.6311 28.0233 26.9108C26.9933 27.1907 25.9736 26.9247 25.9736 26.9247C25.5285 27.3184 25.1639 27.5925 24.32 27.6212L21.9087 27.6289L19.4975 27.6212C18.6534 27.5925 18.2892 27.3184 17.8441 26.9247C17.8441 26.9247 16.8244 27.1907 15.7944 26.9108C14.7645 26.6311 14.5356 26.2859 14.0846 25.7697C14.0064 25.6802 13.9087 25.5732 13.8275 25.5844Z" fill="url(#paint0_linear_347_8154)"/>
<path d="M3.98626 0.00532283C2.09583 -0.261541 -7.1929 9.56542 11.4268 16.1396C13.3515 16.8201 17.6894 18.0051 19.1371 20.4948C18.1199 20.7232 17.4546 20.8652 16.3007 20.4525C14.6173 19.8505 15.0253 18.065 15.0602 18.0515L6.16199 14.6607C6.16199 14.6607 7.69548 16.4701 9.84733 18.0515C11.9992 19.6332 15.8434 21.2585 17.3986 22.1766C18.9539 23.0921 19.389 24.6272 19.389 24.6272C19.389 24.6272 18.9218 24.5383 17.8881 24.5096C16.8542 24.481 15.8856 23.8062 15.6599 23.1951C15.4341 22.5841 15.5774 21.714 15.5689 21.697L13.361 20.7101C13.361 20.7101 13.3612 22.2453 12.9137 22.7496C12.4662 23.2515 10.3544 21.8479 9.80452 21.5544C9.64036 21.4669 9.47501 21.4915 9.50461 21.6893C9.53183 21.8684 10.5689 23.4007 11.5079 24.238C12.4443 25.0728 13.6503 24.7806 13.9354 24.7696C14.3999 24.7516 15.3771 24.7721 16.3351 25.3495C17.4402 26.0158 17.584 26.4128 17.9755 26.7745C18.2549 27.0325 18.7095 27.4463 19.4881 27.4463L21.9075 27.4671L24.3269 27.4463C25.1055 27.4463 25.5605 27.0325 25.8399 26.7745C26.2311 26.4128 26.3752 26.0158 27.4803 25.3495C28.4382 24.7721 29.4155 24.7516 29.88 24.7696C30.1651 24.7806 31.371 25.0728 32.3075 24.238C33.2465 23.4007 34.2831 21.8684 34.3101 21.6893C34.3399 21.4915 34.175 21.4669 34.0108 21.5544C33.4609 21.8479 31.3491 23.2515 30.9016 22.7496C30.4541 22.2453 30.4541 20.7101 30.4541 20.7101L28.2464 21.697C28.238 21.714 28.3812 22.5841 28.1555 23.1951C27.9298 23.8062 26.9606 24.481 25.9269 24.5096C24.8932 24.5383 24.4263 24.6272 24.4263 24.6272C24.4263 24.6272 24.8614 23.0921 26.4166 22.1766C27.972 21.2585 31.816 19.6332 33.968 18.0515C36.1199 16.4701 37.653 14.6607 37.653 14.6607L28.7551 18.0515C28.79 18.065 29.1981 19.8505 27.5146 20.4525C26.3608 20.8652 25.6954 20.7232 24.6783 20.4948C26.1259 18.0051 30.4638 16.8201 32.3884 16.1396C51.6089 9.35347 41.0911 -0.898973 39.6703 0.0631994C39.2522 0.347249 39.5481 0.780236 39.5481 0.780236C39.5481 0.780236 40.9908 3.18932 39.8808 5.38764C38.7705 7.58616 34.2006 8.85115 32.5965 8.67732C30.9997 8.50606 30.3227 8.00058 30.3178 7.98834C29.7555 7.27347 29.1112 5.97866 28.0402 6.71782C26.7808 7.58952 25.3454 7.31357 24.2474 6.12384C23.147 4.93155 21.9075 4.46794 21.9075 4.46794C21.9075 4.46794 20.668 4.93155 19.5674 6.12384C18.4696 7.31357 17.0339 7.58952 15.7747 6.71782C14.7037 5.97866 14.0601 7.27347 13.4976 7.98834C13.4926 8.00058 12.8157 8.50587 11.2188 8.67732C9.6147 8.85115 5.04482 7.58616 3.93456 5.38764C2.8245 3.18932 4.26722 0.780434 4.26722 0.780434C4.26722 0.780434 4.56279 0.347249 4.1447 0.0631994C4.09702 0.0319966 4.0428 0.0121937 3.98626 0.00532283ZM13.657 10.595C13.657 10.595 14.9166 10.5726 17.0685 11.214C19.2179 11.8558 21.9073 14.4257 21.9073 14.4257C21.9073 14.4257 24.5972 11.8558 26.7467 11.2142C28.8985 10.5728 30.158 10.595 30.158 10.595C30.158 10.595 27.2968 11.2142 24.9174 12.7026C22.5381 14.191 21.9073 16.0249 21.9073 16.0249C21.9073 16.0249 21.2765 14.191 18.8971 12.7026C16.5178 11.2142 13.6568 10.595 13.6568 10.595H13.657Z" fill="url(#paint1_linear_347_8154)"/>
<path d="M3.63592 0.0454102C1.20744 0.753163 -6.22639 9.90714 11.4257 16.1396C13.3503 16.8201 17.6883 18.0053 19.1358 20.4948C18.1188 20.7233 17.4535 20.8652 16.2996 20.4525C14.6162 19.8504 15.0242 18.065 15.059 18.0515L6.16089 14.6607C6.16089 14.6607 7.69418 16.4701 9.84604 18.0515C11.9981 19.6332 15.8423 21.2584 17.3975 22.1766C18.9527 23.0921 19.3879 24.6271 19.3879 24.6271C19.3879 24.6271 18.9207 24.5382 17.8868 24.5096C16.8531 24.481 15.8845 23.8062 15.6588 23.195C15.4329 22.5839 15.5763 21.7138 15.5678 21.6966L13.3599 20.7101C13.3599 20.7101 13.3599 22.2451 12.9126 22.7496C12.4649 23.2515 10.3533 21.8479 9.80342 21.5543C9.63926 21.4668 9.47391 21.4915 9.50351 21.6893C9.53054 21.8684 10.5676 23.4007 11.5068 24.238C12.4432 25.0728 13.649 24.7806 13.9341 24.7696C14.3986 24.7514 15.3756 24.7719 16.3334 25.3495C17.4387 26.0158 17.5829 26.4128 17.9744 26.7745C18.2536 27.0325 18.7084 27.4463 19.487 27.4463L21.8886 27.467H21.9064L24.3078 27.4463C25.0864 27.4463 25.5412 27.0325 25.8204 26.7745C26.2119 26.4128 26.3561 26.0158 27.4614 25.3495C28.4192 24.7719 29.3962 24.7514 29.8607 24.7696C30.1458 24.7806 31.352 25.0728 32.2886 24.238C33.2276 23.4007 34.2643 21.8684 34.2913 21.6893C34.3211 21.4915 34.1557 21.4668 33.9916 21.5543C33.4417 21.8479 31.3299 23.2515 30.8824 22.7496C30.4349 22.2451 30.4349 20.7101 30.4349 20.7101L28.2272 21.6966C28.2185 21.7138 28.3619 22.5839 28.1362 23.195C27.9105 23.8062 26.9417 24.481 25.908 24.5096C24.8743 24.5382 24.4069 24.6271 24.4069 24.6271C24.4069 24.6271 24.8425 23.0921 26.3977 22.1766C27.9531 21.2584 31.7967 19.6332 33.9488 18.0515C36.1006 16.4703 37.6339 14.6607 37.6339 14.6607L28.7359 18.0515C28.7708 18.065 29.1786 19.8504 27.4954 20.4525C26.3413 20.8652 25.676 20.7233 24.659 20.4948C26.1065 18.0053 30.4446 16.8201 32.3691 16.1396C50.0212 9.90714 42.5878 0.753163 40.1593 0.0454102C40.1593 0.0454102 42.6219 3.25272 42.2456 6.39148C41.8808 9.53025 35.6786 12.6921 30.4797 13.9707C29.0137 14.3316 22.1402 17.2958 21.9001 20.642C21.6599 17.2958 14.7811 14.3316 13.3151 13.9705C8.11642 12.6921 1.91459 9.53025 1.54957 6.39148C1.1733 3.25272 3.63592 0.0454102 3.63592 0.0454102Z" fill="url(#paint2_linear_347_8154)"/>
<path d="M19.4967 27.6211C19.3708 29.7491 21.9088 31.0378 21.9088 31.0378C21.9088 31.0378 24.4472 29.7491 24.3211 27.6211L21.9088 27.6288L19.4967 27.6211Z" fill="url(#paint3_linear_347_8154)"/>
<path fill-rule="evenodd" clip-rule="evenodd" d="M18.6529 23.8919C18.5332 23.6043 17.8836 22.4679 16.3726 22.025C16.2069 21.9764 15.9394 21.9452 15.8727 22.3277C15.8141 22.6638 15.9259 23.1039 16.1317 23.3706C16.5082 23.8581 16.9373 24.0778 17.4646 24.1785C17.6897 24.2214 18.0194 24.2909 18.2984 24.2716C18.405 24.2657 18.5092 24.2373 18.604 24.1882C18.7313 24.1234 18.7106 24.0302 18.6529 23.8919ZM18.3473 20.0173C17.9462 19.5569 17.3874 18.7936 15.9178 18.2415C15.7561 18.1805 15.4846 18.1617 15.4179 18.5441C15.3593 18.8803 15.4711 19.3204 15.6771 19.5871C16.0534 20.0746 16.4818 20.299 17.0098 20.395C17.2465 20.4379 17.4359 20.4884 17.8436 20.488C17.9574 20.4878 18.0731 20.4675 18.1786 20.4485C18.5825 20.376 18.4833 20.1734 18.3473 20.0173ZM25.1614 23.8919C25.2812 23.6043 25.9307 22.4679 27.4417 22.025C27.6076 21.9764 27.875 21.9452 27.9417 22.3277C28.0003 22.6638 27.8886 23.1039 27.6826 23.3706C27.3063 23.8581 26.877 24.0778 26.35 24.1785C26.1247 24.2214 25.795 24.2909 25.5162 24.2716C25.4095 24.2657 25.3052 24.2373 25.2103 24.1882C25.0831 24.1234 25.104 24.0302 25.1614 23.8919ZM25.4668 20.0173C25.8682 19.5569 26.4269 18.7936 27.8963 18.2415C28.0583 18.1805 28.3298 18.1617 28.3965 18.5441C28.4551 18.8803 28.3432 19.3204 28.1372 19.5871C27.7609 20.0746 27.3326 20.299 26.8046 20.395C26.5678 20.4379 26.3782 20.4884 25.9708 20.488C25.8569 20.4878 25.7413 20.4675 25.6355 20.4485C25.2318 20.376 25.3311 20.1734 25.4668 20.0173Z" fill="#6E93E5"/>
<path d="M3.59805 4.41187C3.59805 4.41187 3.41968 9.33987 10.6996 9.93246C11.5918 10.0085 12.5606 9.90461 13.4166 9.01927C14.7083 7.68278 14.5876 7.33987 15.4508 7.6727C16.3164 8.00574 17.4513 8.41424 18.7597 7.25137C20.0677 6.09108 20.7766 5.82283 21.9088 5.82283C23.0409 5.82283 23.7502 6.09108 25.0584 7.25157C26.3668 8.41424 27.5015 8.00574 28.3673 7.6727C29.2303 7.33987 29.1098 7.68278 30.4015 9.01927C31.2575 9.90461 32.2261 10.0085 33.1185 9.93246C40.3982 9.33987 40.2197 4.41187 40.2197 4.41187C40.1518 4.75113 40.0383 5.07965 39.8825 5.38846C38.7724 7.58678 34.2069 8.241 32.6025 8.06935C31.0059 7.89848 31.0219 7.29364 30.5142 6.44367C29.9834 5.55517 29.1131 5.60633 28.0419 6.34569C26.7827 7.2172 25.3421 6.85019 24.2441 5.66026C23.1437 4.46816 21.9088 4.46796 21.9088 4.46796C21.9088 4.46796 20.6742 4.46816 19.5738 5.66046C18.476 6.85019 17.0354 7.217 15.776 6.34569C14.7048 5.60633 13.8345 5.55517 13.3037 6.44367C12.796 7.29364 12.8118 7.89848 11.2152 8.06935C9.61085 8.2412 5.0457 7.58678 3.93544 5.38846C3.77944 5.07967 3.66594 4.75116 3.59805 4.41187Z" fill="url(#paint4_linear_347_8154)"/>
</g>
<defs>
<linearGradient id="paint0_linear_347_8154" x1="13.4561" y1="28.8467" x2="30.4011" y2="28.8467" gradientUnits="userSpaceOnUse">
<stop stop-color="#3B60B2"/>
<stop offset="0.497" stop-color="#3B60B2"/>
<stop offset="0.499" stop-color="#4A78DF"/>
<stop offset="1" stop-color="#4A78DF"/>
</linearGradient>
<linearGradient id="paint1_linear_347_8154" x1="39.8638" y1="9.69757" x2="3.92193" y2="9.69757" gradientUnits="userSpaceOnUse">
<stop stop-color="#253C70"/>
<stop offset="0.499" stop-color="#34549C"/>
<stop offset="0.5" stop-color="#3B60B2"/>
<stop offset="1" stop-color="#2C4886"/>
</linearGradient>
<linearGradient id="paint2_linear_347_8154" x1="36.3638" y1="17.728" x2="8.08505" y2="17.728" gradientUnits="userSpaceOnUse">
<stop stop-color="#34549C"/>
<stop offset="0.512" stop-color="#4A78DF"/>
<stop offset="1" stop-color="#3B60B2"/>
</linearGradient>
<linearGradient id="paint3_linear_347_8154" x1="19.1272" y1="28.559" x2="24.7627" y2="28.5881" gradientUnits="userSpaceOnUse">
<stop stop-color="#436CC9"/>
<stop offset="0.494" stop-color="#4A78DF"/>
<stop offset="1" stop-color="#4A78DF"/>
</linearGradient>
<linearGradient id="paint4_linear_347_8154" x1="4.71028" y1="4.46796" x2="38.9614" y2="4.46796" gradientUnits="userSpaceOnUse">
<stop stop-color="#1E3059"/>
<stop offset="0.502" stop-color="#253C70"/>
<stop offset="1" stop-color="#162443"/>
</linearGradient>
<clipPath id="clip0_347_8154">
<rect width="44" height="32" fill="white"/>
</clipPath>
</defs>
</svg>
